<svg xmlns="http://www.w3.org/2000/svg" viewBox="0 0 659 200" role="img" aria-label="Cavemen's Cut – Für Männer, die Eindruck hinterlassen">
  <circle cx="100" cy="100" r="93" fill="none" stroke="#d6d2cb" stroke-width="2.5"/>
  <circle cx="100" cy="100" r="86" fill="none" stroke="#d6d2cb" stroke-width="0.8" opacity=".55"/>
  <path d="M62 152V98C62 70 79 50 100 50S138 70 138 98V152" fill="none" stroke="#d6d2cb" stroke-width="2.5" stroke-linecap="round"/>
  <path d="M50 152H150" stroke="#d6d2cb" stroke-width="2.5" stroke-linecap="round"/>
  <path d="M100 50l4 9-5 6 7 7-3 6 6 8" fill="none" stroke="#e0a44a" stroke-width="2.2" stroke-linecap="round" stroke-linejoin="round"/>
  <path d="M96.60 117.15L96.95 117.15L97.34 124.72Q96.38 126.35 94.75 127.67Q93.12 128.99 90.70 129.80Q88.28 130.62 84.98 130.62Q79.61 130.57 75.59 128.66Q71.56 126.74 69.36 123.18Q67.16 119.62 67.16 114.56Q67.16 109.63 69.32 106.04Q71.47 102.46 75.50 100.52Q79.52 98.58 85.11 98.58Q88.63 98.58 91.43 99.29Q94.22 99.99 96.11 101L96.16 108.53L95.76 108.53Q94.57 104.17 91.89 102.30Q89.20 100.43 85.60 100.43Q82.08 100.43 79.57 102.15Q77.06 103.86 75.70 106.99Q74.33 110.11 74.33 114.47Q74.33 118.82 75.63 121.99Q76.93 125.16 79.33 126.92Q81.72 128.68 84.98 128.77Q88.37 128.77 90.70 127.67Q93.03 126.57 94.46 124.02Q95.89 121.46 96.60 117.15M131.92 117.15L132.27 117.15L132.66 124.72Q131.70 126.35 130.07 127.67Q128.44 128.99 126.02 129.80Q123.60 130.62 120.30 130.62Q114.93 130.57 110.91 128.66Q106.88 126.74 104.68 123.18Q102.48 119.62 102.48 114.56Q102.48 109.63 104.64 106.04Q106.79 102.46 110.82 100.52Q114.84 98.58 120.43 98.58Q123.95 98.58 126.75 99.29Q129.54 99.99 131.43 101L131.48 108.53L131.08 108.53Q129.89 104.17 127.21 102.30Q124.52 100.43 120.92 100.43Q117.40 100.43 114.89 102.15Q112.38 103.86 111.02 106.99Q109.65 110.11 109.65 114.47Q109.65 118.82 110.95 121.99Q112.25 125.16 114.65 126.92Q117.04 128.68 120.30 128.77Q123.69 128.77 126.02 127.67Q128.35 126.57 129.78 124.02Q131.21 121.46 131.92 117.15" fill="#d6d2cb"/>
  <path d="M84.35 168.12L84.45 168.12L84.45 168.13L86.63 173.80L87.97 169.09Q88.06 168.76 87.92 168.59Q87.77 168.41 87.55 168.41L87.45 168.41L87.45 168.30L89.67 168.30L89.67 168.41L89.58 168.41Q89.33 168.41 89.03 168.56Q88.76 168.72 88.63 169.03L86.78 174.93L86.73 175.13Q86.67 175.33 86.62 175.61Q86.56 175.89 86.56 176.15L86.45 176.15L84.17 170.22L82.47 174.93L82.42 175.12Q82.35 175.32 82.30 175.59Q82.24 175.87 82.23 176.15L82.13 176.15L79.56 169.03Q79.42 168.72 79.17 168.56Q78.88 168.41 78.62 168.41L78.53 168.41L78.53 168.30L81.28 168.30L81.28 168.41L81.19 168.41Q80.98 168.41 80.82 168.59Q80.66 168.76 80.77 169.09L80.76 169.09L82.31 173.89M94.93 175.20L94.93 169.10Q94.92 168.82 94.72 168.61Q94.51 168.41 94.23 168.41L94.08 168.41L94.08 168.30L96.80 168.30L96.80 168.41L96.66 168.41Q96.37 168.41 96.17 168.61Q95.96 168.82 95.95 169.10L95.95 175.20Q95.96 175.48 96.17 175.69Q96.37 175.89 96.66 175.89L96.80 175.89L96.80 176L94.08 176L94.08 175.89L94.23 175.89Q94.51 175.89 94.72 175.69Q94.92 175.48 94.93 175.20M107.40 174.06L107.51 174.06L106.92 176L101.98 176L101.98 175.89L102.12 175.89Q102.41 175.89 102.61 175.69Q102.81 175.48 102.83 175.20L102.83 169.10Q102.83 168.82 102.62 168.61Q102.41 168.41 102.12 168.41L101.99 168.41L101.98 168.30L105.50 168.30Q105.74 168.30 106.01 168.27Q106.28 168.23 106.51 168.19Q106.74 168.15 106.84 168.10L106.84 169.66L106.73 169.66L106.73 169.49Q106.73 169.15 106.51 168.92Q106.32 168.73 106.05 168.69L103.85 168.69L103.85 172.02L105.58 172.02Q105.86 172.01 106.05 171.81Q106.23 171.61 106.23 171.34L106.23 171.20L106.34 171.20L106.34 173.21L106.23 173.21L106.23 173.06Q106.23 172.79 106.05 172.59Q105.86 172.39 105.58 172.39L103.85 172.39L103.85 175.62L105.38 175.62Q105.95 175.62 106.33 175.42Q106.72 175.23 106.97 174.88Q107.22 174.53 107.40 174.06M113.14 168.13L113.25 168.13L119.10 174.14L119.10 169.08Q119.09 168.79 118.90 168.60Q118.70 168.41 118.42 168.41L118.21 168.41L118.21 168.30L120.83 168.30L120.83 168.41L120.63 168.41Q120.36 168.41 120.16 168.60Q119.96 168.79 119.95 169.08L119.95 174.75Q119.95 175.12 119.98 175.44Q120 175.77 120.04 175.96L120.06 176.15L119.96 176.15L114.10 170.15L114.11 175.22Q114.11 175.49 114.31 175.69Q114.50 175.89 114.78 175.89L114.99 175.89L114.99 176L112.37 176L112.37 175.89L112.58 175.89Q112.85 175.89 113.05 175.69Q113.25 175.49 113.25 175.22L113.25 169.51Q113.25 168.93 113.19 168.53" fill="#d6d2cb"/>
  <path d="M261.42 85.15L261.77 85.15L262.16 92.72Q261.20 94.35 259.57 95.67Q257.94 96.99 255.52 97.80Q253.10 98.62 249.80 98.62Q244.43 98.57 240.41 96.66Q236.38 94.74 234.18 91.18Q231.98 87.62 231.98 82.56Q231.98 77.63 234.14 74.04Q236.29 70.46 240.32 68.52Q244.34 66.58 249.93 66.58Q253.45 66.58 256.25 67.29Q259.04 67.99 260.93 69L260.98 76.53L260.58 76.53Q259.39 72.17 256.71 70.30Q254.02 68.43 250.42 68.43Q246.90 68.43 244.39 70.15Q241.88 71.86 240.52 74.99Q239.15 78.11 239.15 82.47Q239.15 86.82 240.45 89.99Q241.75 93.16 244.15 94.92Q246.54 96.68 249.80 96.77Q253.19 96.77 255.52 95.67Q257.85 94.57 259.28 92.02Q260.71 89.46 261.42 85.15M282.50 66.32L282.90 66.32L296.18 95.36Q296.84 96.42 297.68 96.90Q298.74 97.56 299.75 97.56L300.10 97.56L300.10 98L286.11 98L286.11 97.56L286.50 97.56Q287.38 97.56 288.04 96.83Q288.70 96.11 288.18 94.79L286.02 89.38L275.68 89.38L273.39 94.96Q273.13 95.71 273.30 96.28Q273.52 96.90 274.05 97.23Q274.58 97.56 275.11 97.56L275.50 97.56L275.50 98L266.09 98L266.09 97.56L266.48 97.56Q267.50 97.56 268.60 96.90Q269.43 96.42 270.05 95.36L280.34 72.08Q280.48 71.82 280.81 71.09Q281.14 70.37 281.51 69.44Q281.88 68.52 282.19 67.66Q282.50 66.80 282.50 66.32M280.96 76.70L276.47 87.53L285.27 87.53M318.46 98.88L318.06 98.88L304.86 70.41Q304.16 68.92 303.08 68.28Q302 67.64 300.99 67.64L300.64 67.64L300.64 67.20L314.63 67.20L314.63 67.64L314.23 67.64Q313.40 67.64 312.76 68.37Q312.12 69.09 312.60 70.41L320.04 88.58L327.78 70.41Q328.36 69.09 327.65 68.37Q326.95 67.64 326.11 67.64L325.72 67.64L325.72 67.20L335.13 67.20L335.13 67.64L334.74 67.64Q333.77 67.64 332.69 68.28Q331.61 68.92 330.91 70.41L330.86 70.41L320.61 93.12Q320.52 93.38 320.19 94.11Q319.86 94.83 319.47 95.76Q319.07 96.68 318.79 97.54Q318.50 98.40 318.46 98.88M363.12 88.98L363.56 88.98L361.54 98L338.75 98L338.75 97.56L339.32 97.56Q340.46 97.56 341.28 96.75Q342.09 95.93 342.14 94.79L342.14 70.41Q342.09 69.27 341.28 68.45Q340.46 67.64 339.32 67.64L338.75 67.64L338.75 67.20L355.51 67.20Q356.48 67.20 357.56 67.07Q358.64 66.94 359.56 66.76Q360.48 66.58 360.88 66.41L360.88 74.11L360.44 74.11L360.44 73.58Q360.44 71.56 359.25 70.32Q358.20 69.27 356.57 69.09L348.74 69.09L348.74 81.90L354.54 81.90Q356.17 81.85 357.23 80.77Q358.28 79.70 358.28 78.07L358.28 77.76L358.72 77.76L358.72 87.88L358.28 87.88L358.28 87.53Q358.28 85.90 357.23 84.84Q356.17 83.79 354.54 83.74L348.74 83.74L348.74 96.11L354.50 96.11Q356.70 96.11 358.37 95.25Q360.04 94.39 361.23 92.79Q362.42 91.18 363.12 88.98M388.96 89.02L402.03 66.58L402.42 66.58L406.21 95.01Q406.47 96.15 407.31 96.81Q408.23 97.56 409.38 97.56L410.08 97.56L410.08 98L396.88 98L396.88 97.60L397.54 97.60Q398.29 97.60 398.77 97.01Q399.26 96.42 399.26 95.71L399.26 95.58L397.54 79.78L389.31 94.04L388.87 94.79Q388.43 95.58 388.01 96.68Q387.60 97.78 387.60 98.88L387.16 98.88L375.85 79.87L374.13 95.58L374.13 95.71Q374.13 96.42 374.64 97.01Q375.14 97.60 375.85 97.60L376.51 97.60L376.51 98L367.31 98L367.31 97.56L368.02 97.56Q369.20 97.56 370.13 96.81Q370.92 96.24 371.14 95.18L374.88 66.58L375.28 66.58M438.86 88.98L439.30 88.98L437.28 98L414.49 98L414.49 97.56L415.06 97.56Q416.20 97.56 417.02 96.75Q417.83 95.93 417.88 94.79L417.88 70.41Q417.83 69.27 417.02 68.45Q416.20 67.64 415.06 67.64L414.49 67.64L414.49 67.20L431.25 67.20Q432.22 67.20 433.30 67.07Q434.38 66.94 435.30 66.76Q436.22 66.58 436.62 66.41L436.62 74.11L436.18 74.11L436.18 73.58Q436.18 71.56 434.99 70.32Q433.94 69.27 432.31 69.09L424.48 69.09L424.48 81.90L430.28 81.90Q431.91 81.85 432.97 80.77Q434.02 79.70 434.02 78.07L434.02 77.76L434.46 77.76L434.46 87.88L434.02 87.88L434.02 87.53Q434.02 85.90 432.97 84.84Q431.91 83.79 430.28 83.74L424.48 83.74L424.48 96.11L430.24 96.11Q432.44 96.11 434.11 95.25Q435.78 94.39 436.97 92.79Q438.16 91.18 438.86 88.98M447.76 66.54L448.20 66.54L470.42 87.70L470.42 70.32Q470.38 69.18 469.61 68.41Q468.84 67.64 467.69 67.64L466.86 67.64L466.86 67.20L480.19 67.20L480.19 67.64L479.40 67.64Q478.30 67.64 477.50 68.41Q476.71 69.18 476.67 70.32L476.67 92.98Q476.67 94.61 476.80 95.91Q476.93 97.21 477.06 97.91L477.20 98.62L476.80 98.62L454.54 77.45L454.58 94.88Q454.58 95.98 455.37 96.77Q456.16 97.56 457.26 97.56L458.10 97.56L458.10 98L444.77 98L444.77 97.56L445.60 97.56Q446.70 97.56 447.50 96.77Q448.29 95.98 448.29 94.88L448.29 72.04Q448.29 69.58 448.02 68.04M487.37 62.67Q488.16 61.96 489.26 61.88Q490.36 61.79 491.39 62.34Q492.43 62.89 492.96 64.08Q493.79 65.88 493.55 67.71Q493.31 69.53 492.32 70.98Q491.33 72.44 489.81 73.21Q488.29 73.98 486.53 73.76L486.40 73.18Q487.46 72.79 488.05 71.91Q488.64 71.03 488.56 69.95Q488.47 68.87 487.50 67.82Q486.93 67.07 486.64 66.12Q486.36 65.18 486.53 64.25Q486.71 63.33 487.37 62.67M510.48 66.58Q511.36 66.58 512.65 66.67Q513.95 66.76 515.36 66.89Q515.84 66.98 516.28 67.02L519.23 67.02L519.19 67.55Q519.19 67.55 519.19 67.55L518.66 73.49L518.22 73.49Q518.22 71.20 516.53 69.82Q514.83 68.43 512.02 68.43Q509.46 68.43 507.90 69.66Q506.34 70.90 506.25 72.66Q506.21 73.98 507.09 74.94Q507.97 75.91 509.33 76.75L517.74 82.20Q519.76 83.35 520.79 85.20Q521.83 87.04 521.70 89.51Q521.48 93.82 518.40 96.22Q515.32 98.62 510.04 98.62Q508.10 98.62 506.27 98.29Q504.45 97.96 503.04 97.36Q501.63 96.77 500.80 95.93Q500.44 94.96 500.49 93.60Q500.53 92.24 500.91 90.83Q501.28 89.42 501.85 88.50L502.25 88.50Q502.07 90.74 503.06 92.65Q504.05 94.57 505.97 95.69Q507.88 96.81 510.52 96.77Q513.42 96.72 515.01 95.29Q516.59 93.86 516.59 91.84Q516.59 90.48 515.78 89.38Q514.96 88.28 513.12 87.26L505.42 82.16Q503.08 80.84 502.03 78.77Q500.97 76.70 501.19 74.28Q501.41 72 502.56 70.26Q503.70 68.52 505.70 67.55Q507.70 66.58 510.48 66.58M572.14 85.15L572.49 85.15L572.88 92.72Q571.92 94.35 570.29 95.67Q568.66 96.99 566.24 97.80Q563.82 98.62 560.52 98.62Q555.15 98.57 551.13 96.66Q547.10 94.74 544.90 91.18Q542.70 87.62 542.70 82.56Q542.70 77.63 544.86 74.04Q547.01 70.46 551.04 68.52Q555.06 66.58 560.65 66.58Q564.17 66.58 566.97 67.29Q569.76 67.99 571.65 69L571.70 76.53L571.30 76.53Q570.11 72.17 567.43 70.30Q564.74 68.43 561.14 68.43Q557.62 68.43 555.11 70.15Q552.60 71.86 551.24 74.99Q549.87 78.11 549.87 82.47Q549.87 86.82 551.17 89.99Q552.47 93.16 554.87 94.92Q557.26 96.68 560.52 96.77Q563.91 96.77 566.24 95.67Q568.57 94.57 570 92.02Q571.43 89.46 572.14 85.15M579.71 67.20L592.38 67.20L592.38 67.64L591.68 67.64Q590.71 67.64 590.03 68.26Q589.35 68.87 589.35 69.84L589.35 86.56Q589.35 89.68 590.38 91.97Q591.42 94.26 593.33 95.49Q595.24 96.72 597.88 96.72Q600.57 96.72 602.53 95.56Q604.48 94.39 605.54 92.24Q606.60 90.08 606.60 87.13L606.60 69.84Q606.60 68.87 605.91 68.26Q605.23 67.64 604.26 67.64L603.56 67.64L603.56 67.20L612.80 67.20L612.80 67.64L612.10 67.64Q611.13 67.64 610.45 68.26Q609.76 68.87 609.76 69.84L609.76 86.87Q609.76 90.48 608.25 93.12Q606.73 95.76 603.89 97.19Q601.05 98.62 597.05 98.62Q592.38 98.62 589.17 97.19Q585.96 95.76 584.35 93.14Q582.75 90.52 582.75 86.91L582.75 69.84Q582.75 68.87 582.07 68.26Q581.38 67.64 580.42 67.64L579.71 67.64M645.94 66.36L645.94 74.06L645.50 74.02L645.50 73.54Q645.50 71.47 644.29 70.26Q643.08 69.05 641.01 69L635.16 69L635.16 94.79Q635.20 95.93 636.02 96.75Q636.83 97.56 637.98 97.56L638.55 97.56L638.55 98L625.17 98L625.17 97.56L625.74 97.56Q626.89 97.56 627.70 96.75Q628.52 95.93 628.56 94.79L628.56 69L622.66 69Q620.64 69.05 619.43 70.26Q618.22 71.47 618.22 73.54L618.22 74.02L617.78 74.06L617.78 66.36Q618.22 66.54 619.12 66.72Q620.02 66.89 621.12 67.02Q622.22 67.16 623.15 67.16L640.57 67.16Q641.54 67.16 642.62 67.02Q643.70 66.89 644.62 66.72Q645.54 66.54 645.94 66.36" fill="#d6d2cb"/>
  <path d="M232 112H647" stroke="#e0a44a" stroke-width="1.5"/>
  <path d="M237.82 128.24L237.95 128.24L237.95 130.65L237.82 130.65L237.82 130.48Q237.82 130.15 237.60 129.91Q237.37 129.67 237.03 129.67L234.96 129.67L234.96 133.04Q234.97 133.38 235.21 133.62Q235.46 133.87 235.80 133.87L235.97 133.87L235.97 134L232.71 134L232.71 133.87L232.88 133.87Q233.23 133.87 233.47 133.62Q233.72 133.38 233.73 133.04L233.73 125.72Q233.73 125.38 233.48 125.14Q233.23 124.89 232.88 124.89L232.73 124.89L232.71 124.76L236.94 124.76Q237.23 124.76 237.55 124.72Q237.87 124.68 238.15 124.63Q238.43 124.58 238.55 124.52L238.55 126.26L238.42 126.26L238.42 126.08Q238.42 125.71 238.17 125.47Q237.93 125.22 237.56 125.22L234.96 125.22L234.96 129.22L237.03 129.22Q237.37 129.21 237.60 128.97Q237.82 128.73 237.82 128.40M242.59 124.76L245.64 124.76L245.64 124.89L245.42 124.89Q245.13 124.89 244.93 125.08Q244.72 125.26 244.72 125.55L244.72 130.57Q244.72 131.52 245.06 132.23Q245.40 132.94 246.01 133.33Q246.63 133.72 247.44 133.72Q248.30 133.72 248.94 133.35Q249.58 132.98 249.93 132.31Q250.28 131.64 250.28 130.74L250.28 125.55Q250.28 125.26 250.08 125.08Q249.87 124.89 249.58 124.89L249.37 124.89L249.37 124.76L251.92 124.76L251.92 124.89L251.71 124.89Q251.42 124.89 251.21 125.08Q251.01 125.26 251.01 125.55L251.01 130.71Q251.01 131.76 250.57 132.53Q250.12 133.31 249.30 133.75Q248.47 134.18 247.36 134.18Q246.16 134.18 245.29 133.76Q244.42 133.33 243.96 132.55Q243.50 131.77 243.50 130.73L243.50 125.55Q243.50 125.26 243.29 125.08Q243.09 124.89 242.80 124.89L242.59 124.89L242.59 124.76M246.15 123.94Q245.90 123.94 245.72 123.76Q245.54 123.59 245.54 123.33Q245.54 123.07 245.72 122.90Q245.90 122.73 246.15 122.73Q246.40 122.73 246.58 122.90Q246.76 123.07 246.76 123.33Q246.76 123.59 246.58 123.76Q246.40 123.94 246.15 123.94M248.83 123.94Q248.58 123.94 248.40 123.76Q248.22 123.59 248.22 123.33Q248.22 123.07 248.40 122.90Q248.58 122.73 248.83 122.73Q249.08 122.73 249.26 122.90Q249.44 123.07 249.44 123.33Q249.44 123.59 249.26 123.76Q249.08 123.94 248.83 123.94M256.84 133.04L256.84 125.72Q256.83 125.38 256.58 125.14Q256.34 124.89 256 124.89L255.83 124.89L255.83 124.76L259.71 124.76Q260.30 124.76 260.81 124.92Q261.33 125.08 261.69 125.39Q262.06 125.70 262.27 126.16Q262.48 126.62 262.48 127.24Q262.48 127.85 262.20 128.42Q261.92 129 261.43 129.37Q260.93 129.74 260.26 129.76Q260.55 129.87 260.84 130.17Q261.13 130.48 261.34 130.77Q261.34 130.78 261.51 131.02Q261.67 131.25 261.92 131.60Q262.17 131.95 262.43 132.30Q262.69 132.64 262.89 132.86Q263.15 133.18 263.41 133.40Q263.67 133.62 263.96 133.74Q264.26 133.87 264.63 133.87L264.63 134L263.71 134Q263.07 134 262.58 133.84Q262.10 133.67 261.74 133.39Q261.38 133.10 261.13 132.77Q261.08 132.68 260.91 132.43Q260.75 132.18 260.54 131.85Q260.34 131.53 260.14 131.21Q259.94 130.90 259.80 130.67Q259.65 130.44 259.61 130.37Q259.39 130.01 259.11 129.76Q258.83 129.50 258.50 129.49L258.50 129.35Q258.52 129.35 258.70 129.36Q258.87 129.37 259.11 129.35Q259.46 129.34 259.84 129.23Q260.23 129.13 260.56 128.83Q260.88 128.52 261.04 127.93Q261.08 127.80 261.10 127.60Q261.12 127.40 261.11 127.19Q261.09 126.28 260.65 125.77Q260.21 125.26 259.49 125.24Q259.19 125.21 258.86 125.22Q258.53 125.22 258.29 125.22L258.07 125.22L258.07 133.04Q258.07 133.38 258.32 133.62Q258.57 133.87 258.91 133.87L259.07 133.87L259.07 134L255.83 134L255.83 133.87L256 133.87Q256.34 133.87 256.58 133.62Q256.83 133.38 256.84 133.04M279.07 132.10L282.79 124.58L282.91 124.58L283.97 133.04Q284.03 133.43 284.31 133.65Q284.59 133.87 284.93 133.87L285.14 133.87L285.14 134L281.91 134L281.91 133.88L282.11 133.88Q282.33 133.88 282.48 133.70Q282.62 133.52 282.62 133.31L282.62 133.30L282.05 127.37L279.39 132.83L279.28 133.05Q279.16 133.29 279.05 133.60Q278.94 133.92 278.91 134.21L278.78 134.21L275.40 127.45L274.85 133.30L274.85 133.31Q274.85 133.52 275 133.70Q275.15 133.88 275.36 133.88L275.56 133.88L275.56 134L272.93 134L272.93 133.87L273.14 133.87Q273.50 133.87 273.78 133.64Q274.04 133.45 274.09 133.08L275.14 124.58L275.25 124.58M292.41 124.55L292.53 124.55L296.27 133.19Q296.45 133.52 296.73 133.67Q297.05 133.87 297.35 133.87L297.46 133.87L297.46 134L294.08 134L294.08 133.87L294.20 133.87Q294.46 133.87 294.66 133.65Q294.86 133.43 294.70 133.04L293.92 131L290.51 131L289.66 133.16Q289.62 133.34 289.67 133.49Q289.73 133.67 289.89 133.77Q290.04 133.87 290.20 133.87L290.32 133.87L290.32 134L287.61 134L287.61 133.87L287.73 133.87Q288.03 133.87 288.36 133.67Q288.63 133.52 288.81 133.19L291.87 126.03Q291.89 126 291.97 125.82Q292.06 125.64 292.16 125.39Q292.26 125.14 292.34 124.91Q292.41 124.67 292.41 124.55M292.26 126.65L290.70 130.55L293.75 130.55L292.26 126.65M291.16 123.94Q290.91 123.94 290.73 123.76Q290.55 123.59 290.55 123.33Q290.55 123.07 290.73 122.90Q290.91 122.73 291.16 122.73Q291.41 122.73 291.59 122.90Q291.77 123.07 291.77 123.33Q291.77 123.59 291.59 123.76Q291.41 123.94 291.16 123.94M293.84 123.94Q293.59 123.94 293.41 123.76Q293.23 123.59 293.23 123.33Q293.23 123.07 293.41 122.90Q293.59 122.73 293.84 122.73Q294.09 122.73 294.27 122.90Q294.45 123.07 294.45 123.33Q294.45 123.59 294.27 123.76Q294.09 123.94 293.84 123.94M301.30 124.56L301.43 124.56L308.45 131.77L308.45 125.70Q308.44 125.35 308.21 125.12Q307.98 124.89 307.63 124.89L307.38 124.89L307.38 124.76L310.52 124.76L310.52 124.89L310.29 124.89Q309.96 124.89 309.72 125.12Q309.48 125.35 309.47 125.70L309.47 132.50Q309.47 132.94 309.50 133.33Q309.53 133.72 309.57 133.95L309.60 134.18L309.48 134.18L302.45 126.98L302.46 133.06Q302.46 133.39 302.70 133.63Q302.93 133.87 303.26 133.87L303.52 133.87L303.52 134L300.37 134L300.37 133.87L300.62 133.87Q300.95 133.87 301.19 133.63Q301.43 133.39 301.43 133.06L301.43 126.21Q301.43 125.51 301.36 125.04M315.10 124.56L315.24 124.56L322.26 131.77L322.26 125.70Q322.25 125.35 322.01 125.12Q321.78 124.89 321.44 124.89L321.19 124.89L321.19 124.76L324.33 124.76L324.33 124.89L324.09 124.89Q323.76 124.89 323.53 125.12Q323.29 125.35 323.28 125.70L323.28 132.50Q323.28 132.94 323.31 133.33Q323.34 133.72 323.38 133.95L323.41 134.18L323.29 134.18L316.25 126.98L316.27 133.06Q316.27 133.39 316.50 133.63Q316.74 133.87 317.07 133.87L317.32 133.87L317.32 134L314.18 134L314.18 133.87L314.43 133.87Q314.76 133.87 315 133.63Q315.24 133.39 315.24 133.06L315.24 126.21Q315.24 125.51 315.17 125.04M334.68 131.68L334.81 131.68L334.10 134L328.17 134L328.17 133.87L328.34 133.87Q328.69 133.87 328.93 133.62Q329.18 133.38 329.19 133.04L329.19 125.72Q329.19 125.38 328.94 125.14Q328.69 124.89 328.34 124.89L328.19 124.89L328.17 124.76L332.40 124.76Q332.69 124.76 333.01 124.72Q333.33 124.68 333.61 124.63Q333.89 124.58 334.01 124.52L334.01 126.40L333.87 126.40L333.87 126.19Q333.87 125.78 333.61 125.50Q333.39 125.27 333.06 125.22L330.42 125.22L330.42 129.22L332.49 129.22Q332.83 129.21 333.06 128.97Q333.28 128.73 333.28 128.40L333.28 128.24L333.41 128.24L333.41 130.65L333.28 130.65L333.28 130.48Q333.28 130.15 333.06 129.91Q332.83 129.67 332.49 129.67L330.42 129.67L330.42 133.54L332.25 133.54Q332.94 133.54 333.40 133.31Q333.86 133.08 334.16 132.65Q334.47 132.23 334.68 131.68M339.66 133.04L339.66 125.72Q339.64 125.38 339.40 125.14Q339.15 124.89 338.81 124.89L338.64 124.89L338.64 124.76L342.52 124.76Q343.11 124.76 343.63 124.92Q344.14 125.08 344.51 125.39Q344.87 125.70 345.08 126.16Q345.29 126.62 345.29 127.24Q345.29 127.85 345.01 128.42Q344.74 129 344.24 129.37Q343.75 129.74 343.07 129.76Q343.36 129.87 343.66 130.17Q343.95 130.48 344.16 130.77Q344.16 130.78 344.32 131.02Q344.49 131.25 344.74 131.60Q344.99 131.95 345.25 132.30Q345.50 132.64 345.70 132.86Q345.97 133.18 346.22 133.40Q346.48 133.62 346.78 133.74Q347.07 133.87 347.44 133.87L347.44 134L346.52 134Q345.89 134 345.40 133.84Q344.91 133.67 344.55 133.39Q344.20 133.10 343.95 132.77Q343.89 132.68 343.73 132.43Q343.56 132.18 343.36 131.85Q343.15 131.53 342.96 131.21Q342.76 130.90 342.61 130.67Q342.47 130.44 342.43 130.37Q342.20 130.01 341.93 129.76Q341.65 129.50 341.32 129.49L341.32 129.35Q341.33 129.35 341.51 129.36Q341.69 129.37 341.93 129.35Q342.27 129.34 342.66 129.23Q343.05 129.13 343.37 128.83Q343.69 128.52 343.85 127.93Q343.89 127.80 343.91 127.60Q343.93 127.40 343.92 127.19Q343.91 126.28 343.46 125.77Q343.02 125.26 342.31 125.24Q342.01 125.21 341.68 125.22Q341.35 125.22 341.11 125.22L340.88 125.22L340.88 133.04Q340.88 133.38 341.13 133.62Q341.38 133.87 341.73 133.87L341.89 133.87L341.89 134L338.64 134L338.64 133.87L338.81 133.87Q339.15 133.87 339.40 133.62Q339.64 133.38 339.66 133.04M350.52 132.92Q350.65 132.72 350.88 132.67Q351.11 132.63 351.34 132.74Q351.57 132.85 351.69 133.13Q351.88 133.55 351.83 133.94Q351.79 134.33 351.58 134.63Q351.38 134.94 351.06 135.12Q350.74 135.29 350.37 135.28L350.33 135.16Q350.70 135.03 350.84 134.81Q350.97 134.58 350.93 134.32Q350.89 134.07 350.73 133.88Q350.62 133.75 350.53 133.59Q350.44 133.43 350.43 133.25Q350.41 133.08 350.52 132.92M361.61 124.76L366.19 124.76Q367.65 124.76 368.73 125.33Q369.82 125.90 370.42 126.94Q371.03 127.98 371.03 129.38Q371.03 130.78 370.42 131.82Q369.82 132.85 368.73 133.43Q367.65 134 366.19 134L361.61 134L361.61 133.87L361.78 133.87Q362.12 133.87 362.36 133.62Q362.61 133.38 362.62 133.04L362.62 125.72Q362.62 125.38 362.37 125.14Q362.12 124.89 361.78 124.89L361.62 124.89L361.61 124.76M366.13 125.21L363.85 125.21L363.85 133.55L366.13 133.55Q367.20 133.55 367.99 133.04Q368.79 132.52 369.22 131.58Q369.66 130.65 369.66 129.38Q369.66 128.11 369.22 127.18Q368.79 126.24 367.99 125.72Q367.20 125.21 366.13 125.21M375.97 133.04L375.97 125.72Q375.95 125.38 375.71 125.14Q375.47 124.89 375.12 124.89L374.95 124.89L374.95 124.76L378.21 124.76L378.21 124.89L378.04 124.89Q377.70 124.89 377.45 125.14Q377.21 125.38 377.19 125.72L377.19 133.04Q377.21 133.38 377.45 133.62Q377.70 133.87 378.04 133.87L378.21 133.87L378.21 134L374.95 134L374.95 133.87L375.12 133.87Q375.47 133.87 375.71 133.62Q375.95 133.38 375.97 133.04M388.73 131.68L388.86 131.68L388.15 134L382.22 134L382.22 133.87L382.40 133.87Q382.74 133.87 382.98 133.62Q383.23 133.38 383.24 133.04L383.24 125.72Q383.24 125.38 382.99 125.14Q382.74 124.89 382.40 124.89L382.24 124.89L382.22 124.76L386.45 124.76Q386.74 124.76 387.06 124.72Q387.38 124.68 387.66 124.63Q387.94 124.58 388.06 124.52L388.06 126.40L387.93 126.40L387.93 126.19Q387.93 125.78 387.66 125.50Q387.44 125.27 387.11 125.22L384.47 125.22L384.47 129.22L386.54 129.22Q386.88 129.21 387.11 128.97Q387.33 128.73 387.33 128.40L387.33 128.24L387.46 128.24L387.46 130.65L387.33 130.65L387.33 130.48Q387.33 130.15 387.11 129.91Q386.88 129.67 386.54 129.67L384.47 129.67L384.47 133.54L386.30 133.54Q386.99 133.54 387.45 133.31Q387.91 133.08 388.22 132.65Q388.52 132.23 388.73 131.68M405.09 131.68L405.22 131.68L404.50 134L398.58 134L398.58 133.87L398.75 133.87Q399.09 133.87 399.34 133.62Q399.58 133.38 399.59 133.04L399.59 125.72Q399.59 125.38 399.34 125.14Q399.09 124.89 398.75 124.89L398.59 124.89L398.58 124.76L402.80 124.76Q403.09 124.76 403.42 124.72Q403.74 124.68 404.02 124.63Q404.29 124.58 404.41 124.52L404.41 126.40L404.28 126.40L404.28 126.19Q404.28 125.78 404.02 125.50Q403.79 125.27 403.46 125.22L400.82 125.22L400.82 129.22L402.89 129.22Q403.24 129.21 403.46 128.97Q403.69 128.73 403.69 128.40L403.69 128.24L403.82 128.24L403.82 130.65L403.69 130.65L403.69 130.48Q403.69 130.15 403.46 129.91Q403.24 129.67 402.89 129.67L400.82 129.67L400.82 133.54L402.66 133.54Q403.34 133.54 403.80 133.31Q404.27 133.08 404.57 132.65Q404.87 132.23 405.09 131.68M410.05 133.04L410.05 125.72Q410.03 125.38 409.79 125.14Q409.55 124.89 409.20 124.89L409.03 124.89L409.03 124.76L412.29 124.76L412.29 124.89L412.12 124.89Q411.78 124.89 411.53 125.14Q411.29 125.38 411.28 125.72L411.28 133.04Q411.29 133.38 411.53 133.62Q411.78 133.87 412.12 133.87L412.29 133.87L412.29 134L409.03 134L409.03 133.87L409.20 133.87Q409.55 133.87 409.79 133.62Q410.03 133.38 410.05 133.04M417.04 124.56L417.18 124.56L424.20 131.77L424.20 125.70Q424.18 125.35 423.95 125.12Q423.72 124.89 423.38 124.89L423.13 124.89L423.13 124.76L426.27 124.76L426.27 124.89L426.03 124.89Q425.70 124.89 425.47 125.12Q425.23 125.35 425.21 125.70L425.21 132.50Q425.21 132.94 425.25 133.33Q425.28 133.72 425.32 133.95L425.35 134.18L425.23 134.18L418.19 126.98L418.21 133.06Q418.21 133.39 418.44 133.63Q418.68 133.87 419.01 133.87L419.26 133.87L419.26 134L416.12 134L416.12 133.87L416.37 133.87Q416.70 133.87 416.94 133.63Q417.18 133.39 417.18 133.06L417.18 126.21Q417.18 125.51 417.11 125.04M430.11 124.76L434.69 124.76Q436.16 124.76 437.24 125.33Q438.32 125.90 438.93 126.94Q439.54 127.98 439.54 129.38Q439.54 130.78 438.93 131.82Q438.32 132.85 437.24 133.43Q436.16 134 434.69 134L430.11 134L430.11 133.87L430.28 133.87Q430.63 133.87 430.87 133.62Q431.11 133.38 431.13 133.04L431.13 125.72Q431.13 125.38 430.88 125.14Q430.63 124.89 430.28 124.89L430.12 124.89L430.11 124.76M434.64 125.21L432.36 125.21L432.36 133.55L434.64 133.55Q435.71 133.55 436.50 133.04Q437.29 132.52 437.73 131.58Q438.16 130.65 438.16 129.38Q438.16 128.11 437.73 127.18Q437.29 126.24 436.50 125.72Q435.71 125.21 434.64 125.21M444.49 133.04L444.49 125.72Q444.47 125.38 444.23 125.14Q443.98 124.89 443.64 124.89L443.47 124.89L443.47 124.76L447.35 124.76Q447.94 124.76 448.46 124.92Q448.97 125.08 449.34 125.39Q449.70 125.70 449.91 126.16Q450.12 126.62 450.12 127.24Q450.12 127.85 449.84 128.42Q449.57 129 449.07 129.37Q448.58 129.74 447.90 129.76Q448.19 129.87 448.49 130.17Q448.78 130.48 448.99 130.77Q448.99 130.78 449.15 131.02Q449.32 131.25 449.57 131.60Q449.82 131.95 450.08 132.30Q450.33 132.64 450.53 132.86Q450.80 133.18 451.05 133.40Q451.31 133.62 451.61 133.74Q451.90 133.87 452.27 133.87L452.27 134L451.35 134Q450.72 134 450.23 133.84Q449.74 133.67 449.38 133.39Q449.03 133.10 448.78 132.77Q448.72 132.68 448.56 132.43Q448.39 132.18 448.19 131.85Q447.98 131.53 447.79 131.21Q447.59 130.90 447.44 130.67Q447.30 130.44 447.26 130.37Q447.03 130.01 446.76 129.76Q446.48 129.50 446.15 129.49L446.15 129.35Q446.16 129.35 446.34 129.36Q446.52 129.37 446.76 129.35Q447.10 129.34 447.49 129.23Q447.88 129.13 448.20 128.83Q448.52 128.52 448.68 127.93Q448.72 127.80 448.74 127.60Q448.76 127.40 448.75 127.19Q448.74 126.28 448.29 125.77Q447.85 125.26 447.14 125.24Q446.84 125.21 446.51 125.22Q446.18 125.22 445.94 125.22L445.71 125.22L445.71 133.04Q445.71 133.38 445.96 133.62Q446.21 133.87 446.56 133.87L446.72 133.87L446.72 134L443.47 134L443.47 133.87L443.64 133.87Q443.98 133.87 444.23 133.62Q444.47 133.38 444.49 133.04M455.19 124.76L458.24 124.76L458.24 124.89L458.03 124.89Q457.74 124.89 457.53 125.08Q457.33 125.26 457.33 125.55L457.33 130.57Q457.33 131.52 457.67 132.23Q458 132.94 458.62 133.33Q459.23 133.72 460.05 133.72Q460.91 133.72 461.55 133.35Q462.19 132.98 462.54 132.31Q462.89 131.64 462.89 130.74L462.89 125.55Q462.89 125.26 462.68 125.08Q462.48 124.89 462.19 124.89L461.98 124.89L461.98 124.76L464.52 124.76L464.52 124.89L464.31 124.89Q464.02 124.89 463.82 125.08Q463.61 125.26 463.61 125.55L463.61 130.71Q463.61 131.76 463.17 132.53Q462.73 133.31 461.90 133.75Q461.08 134.18 459.97 134.18Q458.77 134.18 457.90 133.76Q457.03 133.33 456.56 132.55Q456.10 131.77 456.10 130.73L456.10 125.55Q456.10 125.26 455.90 125.08Q455.69 124.89 455.40 124.89L455.19 124.89M477.02 130.15L477.13 130.15L477.06 132.28Q476.73 132.83 476.22 133.25Q475.72 133.68 475 133.93Q474.29 134.18 473.35 134.18Q471.90 134.17 470.79 133.58Q469.67 133 469.05 131.92Q468.43 130.85 468.43 129.37Q468.43 127.91 469.04 126.84Q469.66 125.76 470.77 125.17Q471.89 124.58 473.42 124.58Q474.42 124.58 475.23 124.82Q476.03 125.06 476.60 125.42L476.79 127.41L476.67 127.41Q476.35 126.20 475.49 125.61Q474.62 125.02 473.47 125.02Q472.34 125.02 471.52 125.56Q470.70 126.09 470.25 127.06Q469.80 128.03 469.80 129.35Q469.80 130.66 470.24 131.64Q470.69 132.61 471.49 133.16Q472.28 133.71 473.35 133.74Q474.32 133.74 475.08 133.39Q475.85 133.05 476.35 132.26Q476.85 131.48 477.02 130.15M482.16 133.04L482.16 125.72Q482.14 125.38 481.90 125.14Q481.66 124.89 481.31 124.89L481.14 124.89L481.14 124.76L484.40 124.76L484.40 124.89L484.23 124.89Q483.89 124.89 483.64 125.14Q483.40 125.38 483.38 125.72L483.38 133.04Q483.40 133.38 483.64 133.62Q483.89 133.87 484.23 133.87L484.40 133.87L484.40 134L481.14 134L481.14 133.87L481.31 133.87Q481.66 133.87 481.90 133.62Q482.14 133.38 482.16 133.04M486.49 124.76L489.35 124.76L489.35 124.88L489.30 124.88Q488.86 124.88 488.49 125.05Q488.20 125.18 487.98 125.38L484.94 128.92L488.44 133.23Q488.73 133.54 489.02 133.70Q489.31 133.85 489.72 133.87L489.72 134L488.98 134Q488.85 134 488.57 133.98Q488.30 133.96 487.97 133.88Q487.64 133.80 487.31 133.62Q486.98 133.45 486.72 133.13Q486.70 133.10 486.48 132.83Q486.26 132.56 485.93 132.15Q485.60 131.73 485.24 131.27Q484.88 130.81 484.55 130.40Q484.22 130 484.02 129.74L483.81 129.49L486.98 125.45Q487.09 125.25 487 125.08Q486.88 124.88 486.62 124.88L486.49 124.88M499.77 133.04L499.77 125.72Q499.75 125.38 499.51 125.14Q499.26 124.89 498.92 124.89L498.75 124.89L498.75 124.76L502.01 124.76L502.01 124.89L501.84 124.89Q501.49 124.89 501.25 125.14Q501.01 125.38 500.99 125.72L500.99 129.20L506.02 129.20L506.02 125.72Q506.02 125.38 505.77 125.14Q505.52 124.89 505.18 124.89L505.01 124.89L505.01 124.76L508.27 124.76L508.27 124.89L508.09 124.89Q507.75 124.89 507.51 125.14Q507.26 125.38 507.25 125.72L507.25 133.04Q507.26 133.38 507.51 133.62Q507.75 133.87 508.09 133.87L508.27 133.87L508.27 134L505.01 134L505.01 133.87L505.18 133.87Q505.52 133.87 505.77 133.62Q506.02 133.38 506.02 133.04L506.02 129.64L500.99 129.64L500.99 133.04Q501.01 133.38 501.25 133.62Q501.49 133.87 501.84 133.87L502.01 133.87L502.01 134L498.75 134L498.75 133.87L498.92 133.87Q499.26 133.87 499.51 133.62Q499.75 133.38 499.77 133.04M513.31 133.04L513.31 125.72Q513.29 125.38 513.05 125.14Q512.81 124.89 512.46 124.89L512.29 124.89L512.29 124.76L515.55 124.76L515.55 124.89L515.38 124.89Q515.04 124.89 514.79 125.14Q514.55 125.38 514.54 125.72L514.54 133.04Q514.55 133.38 514.79 133.62Q515.04 133.87 515.38 133.87L515.55 133.87L515.55 134L512.29 134L512.29 133.87L512.46 133.87Q512.81 133.87 513.05 133.62Q513.29 133.38 513.31 133.04M520.30 124.56L520.44 124.56L527.46 131.77L527.46 125.70Q527.44 125.35 527.21 125.12Q526.98 124.89 526.64 124.89L526.39 124.89L526.39 124.76L529.53 124.76L529.53 124.89L529.29 124.89Q528.96 124.89 528.73 125.12Q528.49 125.35 528.47 125.70L528.47 132.50Q528.47 132.94 528.51 133.33Q528.54 133.72 528.58 133.95L528.61 134.18L528.49 134.18L521.45 126.98L521.47 133.06Q521.47 133.39 521.70 133.63Q521.94 133.87 522.27 133.87L522.52 133.87L522.52 134L519.38 134L519.38 133.87L519.63 133.87Q519.96 133.87 520.20 133.63Q520.44 133.39 520.44 133.06L520.44 126.21Q520.44 125.51 520.37 125.04M540.80 124.51L540.80 126.38L540.67 126.37L540.67 126.17Q540.67 125.75 540.40 125.48Q540.13 125.21 539.71 125.20L537.46 125.20L537.46 133.04Q537.48 133.38 537.72 133.62Q537.96 133.87 538.31 133.87L538.48 133.87L538.48 134L535.22 134L535.22 133.87L535.39 133.87Q535.73 133.87 535.98 133.62Q536.22 133.38 536.24 133.04L536.24 125.20L533.99 125.20Q533.57 125.21 533.30 125.48Q533.03 125.75 533.03 126.17L533.03 126.37L532.90 126.38L532.90 124.51Q533.03 124.56 533.30 124.61Q533.57 124.67 533.90 124.71Q534.23 124.75 534.51 124.75L539.19 124.75Q539.48 124.75 539.81 124.71Q540.13 124.67 540.41 124.61Q540.68 124.56 540.80 124.51M550.85 131.68L550.98 131.68L550.27 134L544.34 134L544.34 133.87L544.51 133.87Q544.85 133.87 545.10 133.62Q545.34 133.38 545.36 133.04L545.36 125.72Q545.36 125.38 545.11 125.14Q544.85 124.89 544.51 124.89L544.35 124.89L544.34 124.76L548.56 124.76Q548.85 124.76 549.18 124.72Q549.50 124.68 549.78 124.63Q550.06 124.58 550.17 124.52L550.17 126.40L550.04 126.40L550.04 126.19Q550.04 125.78 549.78 125.50Q549.55 125.27 549.22 125.22L546.58 125.22L546.58 129.22L548.66 129.22Q549 129.21 549.22 128.97Q549.45 128.73 549.45 128.40L549.45 128.24L549.58 128.24L549.58 130.65L549.45 130.65L549.45 130.48Q549.45 130.15 549.22 129.91Q549 129.67 548.66 129.67L546.58 129.67L546.58 133.54L548.42 133.54Q549.11 133.54 549.57 133.31Q550.03 133.08 550.33 132.65Q550.64 132.23 550.85 131.68M555.82 133.04L555.82 125.72Q555.81 125.38 555.57 125.14Q555.32 124.89 554.98 124.89L554.81 124.89L554.81 124.76L558.69 124.76Q559.28 124.76 559.80 124.92Q560.31 125.08 560.67 125.39Q561.04 125.70 561.25 126.16Q561.46 126.62 561.46 127.24Q561.46 127.85 561.18 128.42Q560.91 129 560.41 129.37Q559.92 129.74 559.24 129.76Q559.53 129.87 559.82 130.17Q560.11 130.48 560.32 130.77Q560.32 130.78 560.49 131.02Q560.65 131.25 560.91 131.60Q561.16 131.95 561.41 132.30Q561.67 132.64 561.87 132.86Q562.13 133.18 562.39 133.40Q562.65 133.62 562.94 133.74Q563.24 133.87 563.61 133.87L563.61 134L562.69 134Q562.05 134 561.57 133.84Q561.08 133.67 560.72 133.39Q560.36 133.10 560.11 132.77Q560.06 132.68 559.90 132.43Q559.73 132.18 559.53 131.85Q559.32 131.53 559.12 131.21Q558.93 130.90 558.78 130.67Q558.64 130.44 558.60 130.37Q558.37 130.01 558.09 129.76Q557.82 129.50 557.49 129.49L557.49 129.35Q557.50 129.35 557.68 129.36Q557.86 129.37 558.09 129.35Q558.44 129.34 558.83 129.23Q559.22 129.13 559.54 128.83Q559.86 128.52 560.02 127.93Q560.06 127.80 560.08 127.60Q560.10 127.40 560.09 127.19Q560.07 126.28 559.63 125.77Q559.19 125.26 558.48 125.24Q558.17 125.21 557.84 125.22Q557.51 125.22 557.28 125.22L557.05 125.22L557.05 133.04Q557.05 133.38 557.30 133.62Q557.55 133.87 557.90 133.87L558.05 133.87L558.05 134L554.81 134L554.81 133.87L554.98 133.87Q555.32 133.87 555.57 133.62Q555.81 133.38 555.82 133.04M573.14 131.68L573.27 131.68L572.56 134L566.63 134L566.63 133.87L566.81 133.87Q567.15 133.87 567.39 133.62Q567.64 133.38 567.65 133.04L567.65 125.72Q567.64 125.38 567.39 125.14Q567.15 124.89 566.81 124.89L566.63 124.89L566.63 124.76L569.89 124.76L569.89 124.89L569.72 124.89Q569.38 124.89 569.14 125.14Q568.89 125.38 568.88 125.72L568.88 133.54L570.71 133.54Q571.40 133.54 571.86 133.31Q572.32 133.08 572.63 132.65Q572.93 132.23 573.14 131.68M580.77 124.55L580.89 124.55L584.63 133.19Q584.81 133.52 585.09 133.67Q585.40 133.87 585.71 133.87L585.81 133.87L585.81 134L582.43 134L582.43 133.87L582.55 133.87Q582.82 133.87 583.01 133.65Q583.21 133.43 583.05 133.04L582.28 131L578.87 131L578.01 133.16Q577.97 133.34 578.03 133.49Q578.09 133.67 578.24 133.77Q578.39 133.87 578.55 133.87L578.67 133.87L578.67 134L575.97 134L575.97 133.87L576.08 133.87Q576.39 133.87 576.72 133.67Q576.98 133.52 577.17 133.19L580.23 126.03Q580.24 126 580.33 125.82Q580.41 125.64 580.51 125.39Q580.61 125.14 580.69 124.91Q580.77 124.67 580.77 124.55M580.61 126.65L579.05 130.55L582.10 130.55M591.63 124.58Q591.86 124.58 592.15 124.60Q592.44 124.63 592.74 124.67Q592.85 124.69 592.94 124.71L593.60 124.71L593.60 124.98L593.55 126.44L593.43 126.44Q593.43 125.79 592.97 125.41Q592.51 125.02 591.81 125.02Q591.07 125.02 590.61 125.45Q590.16 125.88 590.16 126.46Q590.14 126.75 590.31 127.08Q590.47 127.40 590.82 127.68L593.39 129.83Q593.85 130.19 594.04 130.65Q594.23 131.12 594.22 131.62Q594.19 132.79 593.44 133.49Q592.69 134.18 591.41 134.18Q591 134.18 590.53 134.11Q590.06 134.03 589.65 133.86Q589.24 133.70 588.99 133.43Q588.93 133.19 588.93 132.84Q588.94 132.50 589.01 132.13Q589.09 131.76 589.21 131.47L589.32 131.47Q589.26 132.14 589.52 132.67Q589.77 133.19 590.27 133.48Q590.76 133.76 591.41 133.74Q592.19 133.71 592.70 133.25Q593.20 132.80 593.20 132.06Q593.20 131.68 593.03 131.36Q592.86 131.04 592.51 130.79L590.05 128.71Q589.55 128.34 589.34 127.84Q589.13 127.33 589.15 126.83Q589.18 126.24 589.47 125.72Q589.76 125.20 590.31 124.89Q590.86 124.58 591.63 124.58M600.95 124.58Q601.18 124.58 601.47 124.60Q601.76 124.63 602.06 124.67Q602.17 124.69 602.26 124.71L602.92 124.71L602.92 124.98L602.87 126.44L602.75 126.44Q602.75 125.79 602.29 125.41Q601.82 125.02 601.12 125.02Q600.39 125.02 599.93 125.45Q599.47 125.88 599.47 126.46Q599.46 126.75 599.63 127.08Q599.79 127.40 600.13 127.68L602.71 129.83Q603.17 130.19 603.36 130.65Q603.55 131.12 603.54 131.62Q603.51 132.79 602.76 133.49Q602.01 134.18 600.73 134.18Q600.32 134.18 599.85 134.11Q599.38 134.03 598.97 133.86Q598.56 133.70 598.31 133.43Q598.25 133.19 598.25 132.84Q598.26 132.50 598.33 132.13Q598.41 131.76 598.52 131.47L598.64 131.47Q598.58 132.14 598.83 132.67Q599.09 133.19 599.59 133.48Q600.08 133.76 600.73 133.74Q601.51 133.71 602.02 133.25Q602.52 132.80 602.52 132.06Q602.52 131.68 602.35 131.36Q602.18 131.04 601.82 130.79L599.37 128.71Q598.87 128.34 598.66 127.84Q598.44 127.33 598.47 126.83Q598.50 126.24 598.79 125.72Q599.08 125.20 599.63 124.89Q600.17 124.58 600.95 124.58M614.06 131.68L614.19 131.68L613.48 134L607.55 134L607.55 133.87L607.72 133.87Q608.07 133.87 608.31 133.62Q608.56 133.38 608.57 133.04L608.57 125.72Q608.57 125.38 608.32 125.14Q608.07 124.89 607.72 124.89L607.57 124.89L607.55 124.76L611.78 124.76Q612.07 124.76 612.39 124.72Q612.71 124.68 612.99 124.63Q613.27 124.58 613.39 124.52L613.39 126.40L613.25 126.40L613.25 126.19Q613.25 125.78 612.99 125.50Q612.77 125.27 612.44 125.22L609.80 125.22L609.80 129.22L611.87 129.22Q612.21 129.21 612.44 128.97Q612.66 128.73 612.66 128.40L612.66 128.24L612.79 128.24L612.79 130.65L612.66 130.65L612.66 130.48Q612.66 130.15 612.44 129.91Q612.21 129.67 611.87 129.67L609.80 129.67L609.80 133.54L611.63 133.54Q612.32 133.54 612.78 133.31Q613.24 133.08 613.55 132.65Q613.85 132.23 614.06 131.68M618.75 124.56L618.88 124.56L625.90 131.77L625.90 125.70Q625.89 125.35 625.66 125.12Q625.42 124.89 625.08 124.89L624.83 124.89L624.83 124.76L627.97 124.76L627.97 124.89L627.73 124.89Q627.40 124.89 627.17 125.12Q626.93 125.35 626.92 125.70L626.92 132.50Q626.92 132.94 626.95 133.33Q626.98 133.72 627.02 133.95L627.05 134.18L626.93 134.18L619.89 126.98L619.91 133.06Q619.91 133.39 620.14 133.63Q620.38 133.87 620.71 133.87L620.96 133.87L620.96 134L617.82 134L617.82 133.87L618.07 133.87Q618.40 133.87 618.64 133.63Q618.88 133.39 618.88 133.06L618.88 126.21Q618.88 125.51 618.81 125.04" fill="#9d9892"/></svg>
